<?xml version="1.0" encoding="utf-8"?>
<!-- Generator: Adobe Illustrator 27.4.0, SVG Export Plug-In . SVG Version: 6.00 Build 0)  -->
<svg version="1.1" id="Layer_1" xmlns:serif="http://www.serif.com/"
	 xmlns="http://www.w3.org/2000/svg" xmlns:xlink="http://www.w3.org/1999/xlink" x="0px" y="0px" viewBox="0 0 595.3 841.9"
	 style="enable-background:new 0 0 595.3 841.9;" xml:space="preserve">
<style type="text/css">
	.st0{fill:none;}
	.st1{clip-path:url(#SVGID_00000051369410833710926130000011851008175845417647_);}
	.st2{fill:none;stroke:#00528D;stroke-width:29.7567;stroke-miterlimit:10;}
</style>
<rect id="decision_making" y="123.3" class="st0" width="595.2" height="595.2"/>
<g>
	<defs>
		<rect id="SVGID_1_" y="123.3" width="595.2" height="595.2"/>
	</defs>
	<clipPath id="SVGID_00000025434470016690473890000014523221399533895310_">
		<use xlink:href="#SVGID_1_"  style="overflow:visible;"/>
	</clipPath>
	<g style="clip-path:url(#SVGID_00000025434470016690473890000014523221399533895310_);">
		<rect x="234.4" y="160.6" class="st2" width="119.1" height="119.1"/>
		<path class="st2" d="M497.8,339l74.4,74.4l-74.4,74.4l-74.4-74.4L497.8,339z"/>
		<circle class="st2" cx="85.4" cy="413.8" r="67"/>
		<circle class="st2" cx="293.9" cy="614.1" r="67"/>
		<g transform="matrix(0.996729,0,0,0.997141,0,0)">
			
				<image style="overflow:visible;enable-background:new    ;" width="262" height="255" id="_Image2" xlink:href="7BAE646024A3874C.png"  transform="matrix(0.3559 0 0 0.3561 118.0358 250.1869)">
			</image>
		</g>
		<g transform="matrix(0.997141,0,0,0.996729,9.09495e-13,-1.81899e-12)">
			
				<image style="overflow:visible;enable-background:new    ;" width="255" height="262" id="_Image3" xlink:href="7BAE646024A38758.png"  transform="matrix(0.3561 0 0 0.3559 117.6847 487.2628)">
			</image>
		</g>
		<g transform="matrix(0.996729,0,0,0.997141,0,0)">
			
				<image style="overflow:visible;enable-background:new    ;" width="262" height="255" id="_Image4" xlink:href="7BAE646024A38759.png"  transform="matrix(0.3559 0 0 0.3561 372.7543 496.6818)">
			</image>
		</g>
		<g transform="matrix(0.997141,0,0,0.996729,0,1.81899e-12)">
			
				<image style="overflow:visible;enable-background:new    ;" width="255" height="262" id="_Image5" xlink:href="7BAE646024A3875A.png"  transform="matrix(0.3561 0 0 0.3559 372.4027 239.366)">
			</image>
		</g>
	</g>
</g>
</svg>
