<?xml version="1.0" encoding="utf-8"?>
<!-- Generator: Adobe Illustrator 27.4.0, SVG Export Plug-In . SVG Version: 6.00 Build 0)  -->
<svg version="1.1" id="Layer_1" xmlns:serif="http://www.serif.com/"
	 xmlns="http://www.w3.org/2000/svg" xmlns:xlink="http://www.w3.org/1999/xlink" x="0px" y="0px" viewBox="0 0 595.3 841.9"
	 style="enable-background:new 0 0 595.3 841.9;" xml:space="preserve">
<style type="text/css">
	.st0{fill:none;}
	.st1{fill:#01528D;}
	.st2{fill:#004E87;}
	.st3{fill:#F4802D;}
</style>
<rect id="decision_making" y="123.3" class="st0" width="595.2" height="595.2"/>
<path class="st1" d="M240.5,458.1v-31c0-8.4-1.1-16.7-3.5-24.9c-7-24.4-18-45.8-30.6-63.8c-26.6,13.9-57.6,11.2-89.1-20.2
	C86.7,288.1,66.4,210,57.2,168.6c-2.9-12.8,8.6-24,21.3-21.3c41.6,8.8,119.7,28.6,150,58.7c30.4,30.1,34.3,60.1,22.4,86
	c-16.1-12.3-53.2-39.8-94.2-49.3c31,20.9,79.4,61.8,105.6,125.8c59.4-68.9,123.4-103.8,159.1-119.2c-40,0.7-80.5,16.9-98.1,24.6
	c-5.3-28.2,5.9-56.1,42.9-77.9c36.7-21.6,117.7-21.8,159.9-20.2c13,0.7,21.1,14.5,15.2,26.2c-18.9,37.8-58.1,108.5-94.8,130.2
	c-38.5,22.9-69.3,17.6-91.5-2.4c-21.8,16.5-44.7,37.2-66.9,63.1c-7,8.1-10.8,18.7-10.8,29.7v64C266.9,475.3,254.3,465.6,240.5,458.1
	z"/>
<path class="st2" d="M548.5,476.2c0.7,9.2-6.4,16.9-15.6,17.2v9.9c0,35.6-24.6,65.6-57.6,73.9v43.6c0,40.9-33.4,74.1-74.4,74.1
	h-86.2c-14.5,0-27.9-4.2-39.4-11.7c8.8-8.8,16.3-18.9,22.4-29.7c5.1,2.9,10.8,4.4,16.9,4.4h86.2c20.7,0,37.4-16.7,37.4-37.2v-43.6
	c-33.2-8.4-57.9-38.3-57.9-73.9v-9.9c-9-0.2-16.3-7.9-15.6-17.2c0.4-8.8,8.4-15.4,17.2-15.4h23.3V419c0-9,7.7-16.3,16.7-15.6
	c8.4,0.4,14.7,7.9,14.7,16.5v40.9h39.8V419c0-9,7.5-16.3,16.5-15.6c8.6,0.4,15,7.9,15,16.5v40.9h23.3
	C540.1,460.8,548,467.4,548.5,476.2z"/>
<g>
	<g>
		<g>
			<path class="st3" d="M174,472.4c-61.5,0-111.3,49.8-111.3,111.3c0,61.4,49.8,111.3,111.3,111.3c61.4,0,111.3-49.8,111.3-111.3
				C285.3,522.2,235.4,472.4,174,472.4z M219.9,579.9l-64.2,79.5c-1.6,1.9-3.7,3-6.1,3c-2.5,0-4.9-1.2-6.5-3.2
				c-1.5-1.9-2-4.3-1.4-6.8l13.2-52.1h-20.7c-3.1,0-5.9-1.7-7.2-4.5c-1.3-2.8-1-6,1-8.5l64.2-79.5c1.6-1.9,3.7-3,6.1-3
				c2.5,0,4.9,1.2,6.5,3.2c1.5,1.9,2,4.3,1.4,6.8l-13.2,52h20.7c3.1,0,5.9,1.7,7.2,4.5C222.2,574.3,221.9,577.5,219.9,579.9z"/>
		</g>
	</g>
</g>
</svg>
