<?xml version="1.0" encoding="utf-8"?>
<!-- Generator: Adobe Illustrator 27.4.0, SVG Export Plug-In . SVG Version: 6.00 Build 0)  -->
<svg version="1.1" id="Layer_1" xmlns:serif="http://www.serif.com/"
	 xmlns="http://www.w3.org/2000/svg" xmlns:xlink="http://www.w3.org/1999/xlink" x="0px" y="0px" viewBox="0 0 595.3 841.9"
	 style="enable-background:new 0 0 595.3 841.9;" xml:space="preserve">
<style type="text/css">
	.st0{fill:none;}
	.st1{fill:#01528D;}
	.st2{fill:#F4802D;}
</style>
<rect id="decision_making" y="123.3" class="st0" width="595.2" height="595.2"/>
<path class="st1" d="M239.1,519.9l-85-87c-3.8-3.9-9-6.1-14.6-6.2c-5.5,0-10.7,2.1-14.7,6c-6.6,6.6-7.9,16.9-3.2,25l2.5,4.3
	c13.3,22.8,28.6,44.4,45.6,64.5l15.8,18.7c2.4,2.8,3.5,6.4,3.2,10.1c-0.3,3.7-2,7-4.8,9.4c-2.8,2.4-6.4,3.5-10.1,3.2
	c-3.7-0.3-7-2-9.4-4.9l-15-17.7c-18.7-22.1-35.5-45.9-50.1-71l-1.6-2.7c-10.9-18.6-8.3-42.4,6.8-57.8c1.4-1.4,2.8-2.7,4.3-3.9
	l-33.3-71.6c-3.9-8.2-12.4-13.8-21.5-13.9c-6.9-0.1-13.3,2.5-18,7.6c-4.7,5-7.1,11.5-6.5,18.4L44,539.6c1.3,17.6,9.4,34.1,22.5,45.9
	l68.5,62c4.2,3.8,6.7,9,7.1,14.7l1.7,23.5c0.4,6,5.4,10.7,11.5,10.7h99.3c6.7,0,12-5.7,11.5-12.4l-10.2-128.8
	C254.4,542,248.4,529.4,239.1,519.9z"/>
<path class="st1" d="M559.1,332c-4.7-5-11.2-7.7-18-7.6c-9.1,0.1-17.6,5.7-21.5,13.9L486.3,410c1.5,1.2,2.9,2.5,4.3,3.9
	c15.1,15.3,17.7,39.1,6.8,57.8l-1.6,2.7c-14.6,25.1-31.4,48.8-50.1,71l-15,17.7c-2.4,2.8-5.7,4.5-9.4,4.9c-3.7,0.3-7.2-0.8-10.1-3.2
	c-2.8-2.4-4.5-5.7-4.8-9.4c-0.3-3.7,0.8-7.2,3.2-10.1l15.8-18.7c17-20.2,32.3-41.8,45.6-64.5l2.5-4.3c4.7-8.1,3.4-18.4-3.2-25
	c-3.9-3.9-9.1-6.1-14.7-6c-5.6,0.1-10.8,2.3-14.6,6.2l-85,87c-9.3,9.5-15.3,22.1-16.8,35.3L329.2,684c-0.5,6.7,4.7,12.4,11.5,12.4
	H440c6,0,11-4.7,11.5-10.7l1.7-23.5c0.4-5.6,3-10.9,7.1-14.7l68.5-62c13.1-11.9,21.2-28.3,22.5-45.9l14.4-189.3
	C566.2,343.5,563.9,337,559.1,332z"/>
<path class="st2" d="M380.1,145.9H214.9c-23.5,0-42.5,19.1-42.5,42.6v158.2c0,23.5,19.1,42.6,42.5,42.6h165.2
	c23.5,0,42.5-19.1,42.5-42.6V188.4C422.6,165,403.6,145.9,380.1,145.9z M368.7,285c0,3.5-2.9,6.4-6.4,6.4h-41v41
	c0,3.5-2.9,6.4-6.4,6.4H280c-3.5,0-6.4-2.9-6.4-6.4v-41h-41c-3.5,0-6.4-2.8-6.4-6.4v-34.9c0-3.5,2.9-6.4,6.4-6.4h41v-41
	c0-3.5,2.9-6.4,6.4-6.4H315c3.5,0,6.4,2.9,6.4,6.4v41h41c3.5,0,6.4,2.9,6.4,6.4V285z"/>
</svg>
