<?xml version="1.0" encoding="utf-8"?>
<!-- Generator: Adobe Illustrator 27.4.0, SVG Export Plug-In . SVG Version: 6.00 Build 0)  -->
<svg version="1.1" id="Layer_1" xmlns:serif="http://www.serif.com/"
	 xmlns="http://www.w3.org/2000/svg" xmlns:xlink="http://www.w3.org/1999/xlink" x="0px" y="0px" viewBox="0 0 595.3 841.9"
	 style="enable-background:new 0 0 595.3 841.9;" xml:space="preserve">
<style type="text/css">
	.st0{fill:none;}
	.st1{fill:#F4802D;}
	.st2{fill:#01528D;}
</style>
<rect id="decision_making" y="123.3" class="st0" width="595.2" height="595.2"/>
<path class="st1" d="M113.8,419.3c-10.2,0-18.4,8.2-18.4,18.4v119.5c0,10.2,8.2,18.4,18.4,18.4h142c10.2,0,18.4-8.2,18.4-18.4V437.7
	c0-10.2-8.2-18.4-18.4-18.4h-55.4v28.2c0,8.6-7,15.7-15.7,15.7c-8.6,0-15.7-7-15.7-15.7v-28.2H113.8z"/>
<path class="st1" d="M336.8,419.3c-10.2,0-18.4,8.2-18.4,18.4v119.5c0,10.2,8.2,18.4,18.4,18.4h142c10.2,0,18.4-8.2,18.4-18.4V437.7
	c0-10.2-8.2-18.4-18.4-18.4h-55.4v28.2c0,8.6-7,15.7-15.7,15.7c-8.6,0-15.7-7-15.7-15.7v-28.2H336.8z"/>
<path class="st2" d="M541.5,603.3H51.1c-26.3,0-47.8,21.5-47.8,47.8c0,26.3,21.5,47.8,47.8,47.8h490.4c26.3,0,47.8-21.5,47.8-47.8
	C589.3,624.7,567.8,603.3,541.5,603.3z M51.2,671.8c-11.4,0-20.7-9.3-20.7-20.6c0-11.5,9.3-20.7,20.7-20.7s20.7,9.2,20.7,20.7
	C71.9,662.5,62.5,671.8,51.2,671.8z M121.2,671.8c-11.4,0-20.7-9.3-20.7-20.6c0-11.5,9.3-20.7,20.7-20.7c11.4,0,20.7,9.2,20.7,20.7
	C141.9,662.5,132.6,671.8,121.2,671.8z M191.2,671.8c-11.4,0-20.7-9.3-20.7-20.6c0-11.5,9.3-20.7,20.7-20.7
	c11.4,0,20.7,9.2,20.7,20.7C212,662.5,202.6,671.8,191.2,671.8z M261.3,671.8c-11.4,0-20.7-9.3-20.7-20.6c0-11.5,9.3-20.7,20.7-20.7
	c11.4,0,20.7,9.2,20.7,20.7C282,662.5,272.7,671.8,261.3,671.8z M331.3,671.8c-11.4,0-20.7-9.3-20.7-20.6c0-11.5,9.3-20.7,20.7-20.7
	c11.4,0,20.7,9.2,20.7,20.7C352.1,662.5,342.7,671.8,331.3,671.8z M401.4,671.8c-11.4,0-20.7-9.3-20.7-20.6
	c0-11.5,9.3-20.7,20.7-20.7c11.4,0,20.7,9.2,20.7,20.7C422.1,662.5,412.8,671.8,401.4,671.8z M471.4,671.8
	c-11.4,0-20.7-9.3-20.7-20.6c0-11.5,9.3-20.7,20.7-20.7c11.4,0,20.7,9.2,20.7,20.7C492.2,662.5,482.8,671.8,471.4,671.8z
	 M541.5,671.8c-11.4,0-20.7-9.3-20.7-20.6c0-11.5,9.3-20.7,20.7-20.7c11.4,0,20.7,9.2,20.7,20.7
	C562.2,662.5,552.9,671.8,541.5,671.8z"/>
<path class="st2" d="M65.2,175.3h104.4v89.4l-57.1,45.6c-5.4,4.3-7.2,11.8-4.4,18.1l21.8,48.3c2.5,5.6,8.1,8.9,13.9,8.9
	c2.1,0,4.2-0.4,6.2-1.4c7.7-3.5,11.1-12.5,7.6-20.1l-17-37.5l44-35.2l44,35.2l-17,37.5c-3.5,7.7-0.1,16.7,7.6,20.1
	c2,0.9,4.2,1.4,6.2,1.4c5.8,0,11.3-3.3,13.9-8.9l21.8-48.3c2.9-6.3,1.1-13.8-4.4-18.1L200,264.7v-89.4h192.6v89.4l-57.1,45.6
	c-5.4,4.3-7.2,11.8-4.4,18.1l21.8,48.3c2.5,5.6,8.1,8.9,13.9,8.9c2.1,0,4.2-0.4,6.2-1.4c7.7-3.5,11.1-12.5,7.6-20.1l-17-37.5
	l44.1-35.2l44,35.2l-17,37.5c-3.5,7.7-0.1,16.7,7.6,20.1c2,0.9,4.2,1.4,6.2,1.4c5.8,0,11.3-3.3,13.9-8.9l21.8-48.3
	c2.9-6.3,1.1-13.8-4.4-18.1L423,264.7v-89.4h104.4c8.4,0,15.2-6.8,15.2-15.2c0-8.4-6.8-15.2-15.2-15.2H65.2
	c-8.4,0-15.2,6.8-15.2,15.2C50,168.5,56.8,175.3,65.2,175.3z"/>
</svg>
