<?xml version="1.0" encoding="utf-8"?>
<!-- Generator: Adobe Illustrator 27.4.0, SVG Export Plug-In . SVG Version: 6.00 Build 0)  -->
<svg version="1.1" id="Layer_1" xmlns:serif="http://www.serif.com/"
	 xmlns="http://www.w3.org/2000/svg" xmlns:xlink="http://www.w3.org/1999/xlink" x="0px" y="0px" viewBox="0 0 595.3 841.9"
	 style="enable-background:new 0 0 595.3 841.9;" xml:space="preserve">
<style type="text/css">
	.st0{fill:none;}
	.st1{fill:#01528D;}
	.st2{fill:#F4802D;}
</style>
<rect id="decision_making" y="123.3" class="st0" width="595.2" height="595.2"/>
<path class="st1" d="M257,282.9h81.3c0,16.7,13.6,30.2,30.2,30.2c16.7,0,30.2-13.5,30.2-30.2H416c5.9,0,10.6-4.8,10.6-10.6v-22.9
	c0-8.3-1.3-16.5-3.9-24.4l-14.9-44.9c-1.5-4.3-5.5-7.2-10.1-7.2h-47.4v-16.5c0-5.9-4.8-10.6-10.6-10.6H179.3
	c-5.8,0-10.6,4.8-10.6,10.6v115.9c0,5.8,4.8,10.6,10.6,10.6h17.2c0,16.7,13.6,30.2,30.2,30.2C243.4,313.1,257,299.6,257,282.9z
	 M368.5,297.2c-7.9,0-14.3-6.4-14.3-14.3c0-7.9,6.4-14.3,14.3-14.3c7.9,0,14.3,6.4,14.3,14.3C382.8,290.7,376.4,297.2,368.5,297.2z
	 M350.3,193c0-2.3,1.9-4.3,4.3-4.3h36.2c1.8,0,3.5,1.2,4,2.9l8.3,25c0.7,2.1-0.9,4.2-3,4.2h-45.6c-2.3,0-4.3-1.9-4.3-4.3V193z
	 M226.8,297.2c-7.9,0-14.3-6.4-14.3-14.3c0-7.9,6.4-14.3,14.3-14.3c7.9,0,14.3,6.4,14.3,14.3C241.1,290.7,234.7,297.2,226.8,297.2z"
	/>
<path class="st1" d="M175.7,519.8l-40.8,37.7v-30.7c0-8.3-9.9-12.7-16-7L78,557.6v-52.3c0-3-2.4-5.5-5.4-5.5H39.2
	c-2.9,0-5.3,2.3-5.4,5.2c-1.1,27.5-6.1,157.1-7.2,185.5c-0.1,3.1,2.3,5.5,5.4,5.5h154.2c3,0,5.5-2.5,5.5-5.5V526.9
	C191.7,518.5,181.8,514.2,175.7,519.8z M100.3,659.6c0,2.3-1.8,4.1-4.1,4.1H76.3c-2.3,0-4.1-1.8-4.1-4.1v-19.9
	c0-2.3,1.8-4.1,4.1-4.1h19.9c2.3,0,4.1,1.8,4.1,4.1V659.6z M100.3,611.1c0,2.3-1.8,4.1-4.1,4.1H76.3c-2.3,0-4.1-1.8-4.1-4.1v-19.9
	c0-2.3,1.8-4.1,4.1-4.1h19.9c2.3,0,4.1,1.8,4.1,4.1V611.1z M156.8,659.6c0,2.3-1.8,4.1-4.1,4.1h-19.9c-2.3,0-4.1-1.8-4.1-4.1v-19.9
	c0-2.3,1.8-4.1,4.1-4.1h19.9c2.3,0,4.1,1.8,4.1,4.1V659.6z M156.8,611.1c0,2.3-1.8,4.1-4.1,4.1h-19.9c-2.3,0-4.1-1.8-4.1-4.1v-19.9
	c0-2.3,1.8-4.1,4.1-4.1h19.9c2.3,0,4.1,1.8,4.1,4.1V611.1z"/>
<ellipse transform="matrix(8.248141e-02 -0.9966 0.9966 8.248141e-02 -101.0193 995.5016)" class="st1" cx="490.1" cy="552.6" rx="47.5" ry="47.5"/>
<path class="st1" d="M532.1,613.7c-11.9,8.2-26.4,13.1-41.9,13.1c-15.6,0-30-4.8-41.9-13.1c-21.3,7.5-36.7,27.6-36.7,51.5v25.9
	c0,2.7,2.2,5,5,5h147.3c2.7,0,5-2.2,5-5v-25.9C568.8,641.3,553.4,621.2,532.1,613.7z"/>
<path class="st2" d="M382,572.6h-81.1v-16.2c0-9.2-10.3-14.7-17.9-9.5l-44.7,30.5c-6.7,4.5-6.7,14.4,0,18.9l44.7,30.5
	c7.6,5.2,17.9-0.3,17.9-9.5v-16.2H382c7.9,0,14.3-6.4,14.3-14.3C396.3,579,389.9,572.6,382,572.6z"/>
<path class="st2" d="M212.2,351.8c-1.6-7.9-10.7-11.7-17.5-7.3l-45.3,29.6c-7.7,5-6.6,16.6,1.9,20.2l15,6.2l-27.4,66.1
	c-3,7.3,0.4,15.7,7.7,18.7c1.8,0.7,3.7,1.1,5.5,1.1c5.6,0,10.9-3.3,13.2-8.8l27.4-66.1l15,6.2c8.5,3.5,17.5-3.9,15.6-12.9
	L212.2,351.8z"/>
<path class="st2" d="M398.6,351.8c-3.2-7.3-11.6-10.5-18.9-7.3c-7.2,3.2-10.5,11.6-7.3,18.9l28.8,65.5l-14.8,6.5
	c-8.4,3.7-9.3,15.3-1.5,20.2l45.9,28.6c6.8,4.3,15.8,0.3,17.3-7.6l9.9-53.2c1.7-9-7.4-16.3-15.9-12.6l-14.8,6.5L398.6,351.8z"/>
</svg>
