<?xml version="1.0" encoding="utf-8"?>
<!-- Generator: Adobe Illustrator 23.0.3, SVG Export Plug-In . SVG Version: 6.00 Build 0)  -->
<svg version="1.1" id="Layer_1" xmlns:serif="http://www.serif.com/"
	 xmlns="http://www.w3.org/2000/svg" xmlns:xlink="http://www.w3.org/1999/xlink" x="0px" y="0px" viewBox="0 0 595.3 841.9"
	 style="enable-background:new 0 0 595.3 841.9;" xml:space="preserve">
<style type="text/css">
	.st0{fill:none;}
	.st1{fill:#FFFFFF;}
</style>
<rect id="decision_making" x="10.8" y="130.9" class="st0" width="584.4" height="587.7"/>
<path d="M244.6,542.6L27.5,685.6c-4.5,2.9-10.4,2.1-13.9-1.9L2.7,671.4c-3.4-3.9-3.6-9.8-0.3-13.9l118.1-147.3
	c6.6-8.3,16.9-12.7,27.4-11.8l74,6.2L244.6,542.6z"/>
<path d="M354.2,493.2l228.3,85.1c5,1.8,8,7,7,12.2l-3.1,16.2c-1,5.1-5.5,8.8-10.7,8.7l-171.3-3.6c-10.6-0.2-20.3-5.7-26-14.7
	L338,534.4L354.2,493.2z"/>
<path d="M330.7,329.2L247.5,171c-2.4-4.6-7.5-6.8-12.3-5.2l-15,5.1c-4.8,1.7-7.8,6.8-6.9,12.1L255.6,431l41.9-5.8l33.3-65.9
	C335.5,349.9,335.5,338.6,330.7,329.2z"/>
<polygon points="343.7,785.6 230.9,785.6 254.5,549.1 320.1,549.1 "/>
<ellipse class="st1" cx="287.3" cy="490.8" rx="69.1" ry="69.5"/>
<ellipse cx="287.3" cy="490.8" rx="52.2" ry="52.5"/>
<path d="M360.3,840.4h-146c-5.5,0-10-4.5-10-10v-23c0-12.6,10.2-22.8,22.8-22.8h120.4c12.6,0,22.8,10.2,22.8,22.8v23
	C370.3,835.9,365.8,840.4,360.3,840.4z"/>
</svg>
